<svg xmlns="http://www.w3.org/2000/svg" aria-hidden="true" overflow="hidden" style="position:absolute;width:0;height:0">
  <defs>
    <symbol id="icon-logo_icon" viewBox="0 0 37 32">
      <path fill="var(--color2, #28a745)" d="M33.831 3.661c-3.419.194-10.215.902-14.41 3.474-.29.178-.454.493-.454.823V30.7c0 .722.788 1.178 1.453.843 4.316-2.176 10.559-2.77 13.645-2.932 1.054-.056 1.873-.902 1.873-1.916V5.58c.001-1.107-.958-1.984-2.107-1.919zM16.517 7.135C12.322 4.563 5.526 3.856 2.107 3.661.958 3.596-.001 4.473-.001 5.58v21.116c0 1.015.819 1.861 1.873 1.916 3.088.162 9.333.757 13.65 2.934.663.334 1.448-.121 1.448-.841V7.947c0-.331-.163-.634-.454-.812z"/>
    </symbol>
  </defs>
</svg>
